<?xml version="1.0" encoding="UTF-8"?>
<svg id="Layer_2" xmlns="http://www.w3.org/2000/svg" version="1.1" viewBox="0 0 77 315.4">
  <!-- Generator: Adobe Illustrator 30.4.0, SVG Export Plug-In . SVG Version: 2.1.4 Build 226)  -->
  <defs>
    <style>
      .st0 {
        fill: #5eff00;
      }

      .st1 {
        fill: #d7961d;
      }

      .st2 {
        fill: #2a3132;
      }
    </style>
  </defs>
  <g id="Layer_1-2">
    <g>
      <path class="st1" d="M15.9,44.6c8.4,3.9,6.4,9.1,6.8,9.3l2.3,1c11.7,7.1,27.7,4.5,34.3-6,2.3.2,3.5,1,4,3.2l13.4,52c1,8.3-.9,17.6-2.2,26l-14.6,92.2c-2.3,14.8-4.1,28.9-2.5,43.7,1.4,12.9,5.7,24.7,9,37.1l-3.9,12.3-52.1-4.3c-3.1-5.5-2-11.2-.3-17.1l5.9-19.7c6.3-13.9,12-29,14.3-44.9,2-13.5.5-26.9,0-40.3l-1.1-26.6-21.8-34.4c-1.2-1.9-2.2-3.8-4.2-4.8C1,118.7-.2,113.4,0,107.7l6.6-40,1-12.2c.5-5.8,4.7-12.5,8.3-10.9Z"/>
      <path class="st2" d="M15.9,274.3l.9-22.1c.1-24.2-2.4-47.5-6.6-71.3-3.4-19.4-6.4-38.1-7.2-57.4,2,1,2.9,2.8,4.2,4.8l21.8,34.4,1.1,26.6c.6,13.4,2,26.8,0,40.3-2.3,15.9-8,30.9-14.3,44.9h0Z"/>
      <path class="st2" d="M59.3,48.9c-6.6,10.5-22.7,13-34.3,6l-2.3-1c-.4-.2,1.7-5.4-6.8-9.3.8-1.5.1-2.6-.7-4.2-6.6-11.9-3.2-26.4,6.9-34.3,10.9-8.6,25.9-7.9,35.9,1.4,9.8,9,11.7,24.6,3.4,35.5-1.7,2.2-1.5,4.2-2.2,5.9ZM57.3,29c.9-10-6.5-18.9-16.6-19.8-10-.9-18.9,6.5-19.8,16.6-.9,10,6.5,18.9,16.6,19.8s18.9-6.5,19.8-16.6Z"/>
      <path class="st1" d="M57.3,29c-.9,10-9.7,17.5-19.8,16.6s-17.5-9.7-16.6-19.8c.9-10,9.7-17.5,19.8-16.6,10,.9,17.5,9.7,16.6,19.8ZM50.7,28.4c.6-6.3-4.1-11.9-10.4-12.5s-11.9,4.1-12.5,10.4c-.6,6.3,4.1,11.9,10.4,12.5s11.9-4.1,12.5-10.4Z"/>
      <circle class="st2" cx="39.2" cy="27.4" r="11.5"/>
    </g>
    <circle id="joint-wrist" class="st0" cx="39.9" cy="290.4" r="8.5"/>
    <circle id="joint-elbow" class="st0" cx="39.9" cy="27.5" r="8.5"/>
  </g>
</svg>