<?xml version="1.0" encoding="UTF-8"?>
<svg id="Layer_2" xmlns="http://www.w3.org/2000/svg" version="1.1" viewBox="0 0 117.3 310.4">
  <!-- Generator: Adobe Illustrator 30.4.0, SVG Export Plug-In . SVG Version: 2.1.4 Build 226)  -->
  <defs>
    <style>
      .st0 {
        fill: #5eff00;
      }

      .st1 {
        fill: #d79712;
      }

      .st2 {
        fill: #2f3332;
      }
    </style>
  </defs>
  <g id="Layer_1-2">
    <g>
      <path class="st1" d="M67.8,15.3l6.5,19.5-12.8,15.5.9,26.5c0,1.4,1.6,2.6,2.4,3.8l.2,65.6-1.5,10.3.3,87.3,17.4,17.8c1,1.1,2,2,3.3,2.2,1.5,3.7,2.1,7.5,1.1,11.8-2.1,1.3-3.6,3-5.9,3.7-2.8-12.2-14.2-20.5-26.8-19.4s-22.3,11.3-22.9,23.8c-1.5-.6-4.3-1.5-4.5-3.3l-2-16.5,3.2-4.3-9.9-77L7.8,114.6c-1.2-1.6-3.9-2.7-4-4.6l-.5-10.5-.7-12.4-.8-12.4-.7-14.7c-.3-6.3-2-12.8-.4-19L11.1,0h27.6c8.5,3.2,17,4.7,25.9,6.4.6,3.5,2.4,6.3,3.2,8.9h0Z"/>
      <g>
        <path class="st2" d="M83.3,40.1c-.3,1.3-1.8,2.6-2.9,3.6l-.4,17.5,7.3,6.2c3.3.5,6.9-3.7,5.7-7.7l15.2,2.1c1.8.2,3.2.8,4.7,2.4l4.5,4.8-.2,43.3c0,1.3-1.9,3.1-1.2,4.1-.4-.6-1.2-.9-1.6-.4-.3.4-.8,1.4-.7,1.9.3,2.3-1.3,3.3-2.3,4.6-1.9,2.5-1.3,6.3-1.4,9.4l-.5,23.1c0,2.2-4.3,4.5-1.3,8.6l-14.8-1.1c-1.8-2.8-1.6-5.6-2.4-8.8-.6-2.2-6.2-2.6-7.2-.6-1.1,2.5-1.2,4.5-4.1,5.8l-1.9,80c0,3.4,8.1,6.6,7.2,19.9l-.4,5.1c-1.3-.2-2.2-1.2-3.3-2.2l-17.4-17.8-.3-87.3,1.5-10.3-.2-65.6c-.8-1.3-2.3-2.4-2.4-3.8l-.9-26.5,12.8-15.5-6.5-19.5,4.7.6,7.4,21c.6,1.8,1.4,3,3.4,3.2h0ZM94.8,116.4c-2.4-.9-3-1.4-3.2-3.7,0-1.2-2.4-1.5-3.7-1-1.6.6-3.5,6.2-2.4,10.6h10.1c.5-1.4.5-5.3-.9-5.8h0Z"/>
        <path class="st1" d="M116,116.3c.3.4.9.8.9,1.7l-.2,39.9-5.3,4.8c-1.1,1-2.1,1.5-3.7.9l-1.3,14.3-5.1,73.4-9.1,10.4c-3-.3-5.2-1.5-7.4-2.8,1-13.3-7.2-16.5-7.2-19.9l1.9-80c2.9-1.3,3-3.3,4.1-5.8.9-2.1,6.6-1.6,7.2.6.9,3.1.7,6,2.4,8.8l14.8,1.1c-3-4.2,1.3-6.4,1.3-8.6l.5-23.1c0-3.2-.5-6.9,1.4-9.4,1-1.3,2.7-2.3,2.3-4.6,0-.5.4-1.4.7-1.9.4-.6,1.2-.2,1.6.4h0l.2-.2Z"/>
        <path class="st1" d="M108.2,61.8l-15.2-2.1c1.2,4-2.4,8.2-5.7,7.7l-7.3-6.2.4-17.5c1.1-1,2.6-2.2,2.9-3.6.2-.7,1.2-1.7,2-2.5l22.2,7.2.7,17h0Z"/>
        <path class="st1" d="M94.8,116.4c1.4.5,1.3,4.4.9,5.9h-10.1c-1.1-4.5.8-10.1,2.4-10.7,1.2-.4,3.6-.2,3.7,1,.2,2.3.8,2.8,3.2,3.7h0Z"/>
      </g>
      <g>
        <path class="st2" d="M80.3,285.2c0-13.9-11.3-25.2-25.2-25.2s-25.2,11.3-25.2,25.2,11.3,25.2,25.2,25.2,25.2-11.3,25.2-25.2ZM55.2,303.2c-9.9,0-17.9-8-17.9-17.9s8-17.9,17.9-17.9,17.9,8,17.9,17.9-8,17.9-17.9,17.9h0Z"/>
        <path class="st1" d="M73.1,285.3c0,9.9-8,17.9-17.9,17.9s-17.9-8-17.9-17.9,8-17.9,17.9-17.9,17.9,8,17.9,17.9h0ZM68.2,285.2c0-7.2-5.8-13-13-13s-13,5.8-13,13,5.8,13,13,13,13-5.8,13-13Z"/>
        <circle class="st2" cx="55.2" cy="285.2" r="13"/>
      </g>
    </g>
    <circle id="joint-elbow" class="st0" cx="38.9" cy="21" r="8.5"/>
    <circle id="joint-wrist" class="st0" cx="54.2" cy="283.9" r="8.5"/>
  </g>
</svg>