<?xml version="1.0" encoding="UTF-8"?>
<svg id="Layer_2" xmlns="http://www.w3.org/2000/svg" version="1.1" viewBox="0 0 210.9 426.8">
  <!-- Generator: Adobe Illustrator 30.4.0, SVG Export Plug-In . SVG Version: 2.1.4 Build 226)  -->
  <defs>
    <style>
      .st0 {
        fill: #5eff00;
      }

      .st1 {
        fill: #d7961d;
      }

      .st2 {
        fill: #2a3132;
      }
    </style>
  </defs>
  <g id="Layer_1-2">
    <g>
      <g>
        <path class="st1" d="M51.9,55.2c9.5-23.6,26.3-40.6,49.5-49.6,30.5-11.8,64.8-5.1,87.3,20.2,19.8,22.4,26,52.6,20.1,82.3-4.7,23.7-13.4,45.6-25,66.2l-20.6,6.7c-10.8,3.5-21.8,3.5-33,3.7l-16.5.4-11.9-14.6c-3.1-3.9-5.7-5.4-6.9-10.6-1.5-6.6-5.6-12.4-6.6-19.6-10-4.3-17.9-10.6-25.4-18.6-3.1-3.3-7.2-5.8-9.1-9.5-9.5-18.4-9.4-38.4-1.9-57.1h0ZM129.1,106.8c14.1,0,25.5-11.8,25.5-26.5s-11.4-26.5-25.5-26.5-25.5,11.8-25.5,26.5,11.4,26.5,25.5,26.5Z"/>
        <path class="st1" d="M0,48.8l7.9-20.2,56.4,10.6c.4,0-10.8,25.5-12.9,23.3-14.1-3.8-37.1-11-51.4-13.7h0Z"/>
        <ellipse class="st2" cx="129.1" cy="80.3" rx="25.5" ry="26.5"/>
      </g>
      <g>
        <path class="st1" d="M74.9,321.2c1.5-2.6,5.2-6.4,5.2-10.4,0-28.8-1.3-56.5-3.2-85.3l26.5-29.8,29.2,12.9c6.1.8,12.5-4.9,17.6-7.5,5.6-3,10.4-6.7,12.8-12.1l7.7,7.4c-2.8,26.9-7.3,52.7-12,79.2l-6.8,38.5c.6,13-.3,26.1-1,38.9-1.9,1-3.8,2.1-4.1,4.3-3-2.4-5.3-3.2-7.8-7.4-5-8.2-27-6.1-36.1,4.9.7,7.4-8.6,10.4-11,25.5-4.7-1.4-7.2-5.2-8.6-10.2l-9.4-35.3c-1.3-5-1.3-9.5,1.2-13.7h-.2Z"/>
        <path class="st2" d="M74.9,321.3c-7.8-24.4-15.5-48.5-21.1-74.1-6.1-28-9.3-55.6-10.7-84.2-.7-15.1,3.2-38.4,10.6-50.6,1.9,3.8,6,6.2,9.1,9.5,7.5,8,15.4,14.3,25.4,18.6.9,7.2,5,13,6.6,19.6,1.2,5.2,3.8,6.7,6.9,10.6l11.9,14.6,16.5-.4c11.2-.2,22.3-.2,33-3.7.3,2.6.7,5.9-.3,8.1-2.4,5.4-7.2,9.1-12.8,12.1-5.1,2.6-11.5,8.3-17.6,7.5l-29.2-12.9-26.5,29.8c2,28.8,3.4,56.5,3.2,85.3,0,4-3.7,7.8-5.2,10.4h0l.2-.2Z"/>
        <path class="st2" d="M91.6,380.4c2.4-15.1,11.8-18,11-25.5,9.1-11,31.1-13.1,36.1-4.9,2.6,4.2,4.8,5,7.8,7.4,14.6,11.4,18.8,31.9,8.7,48.1l3.1,8c-10.5,15.6-24.6,15.5-43,9.8-2.1-5.5-9.6-5.4-16.9-15.4-5.7-7.8-8.3-17.8-6.8-27.5h0ZM125.9,410.2c12.8,0,23.1-10.7,23.1-24s-10.3-24-23.1-24-23.1,10.7-23.1,24,10.3,24,23.1,24Z"/>
        <path class="st1" d="M125.9,362.2c12.8,0,23.1,10.8,23.1,24s-10.3,24-23.1,24-23.1-10.7-23.1-24,10.3-24,23.1-24ZM125.8,401.4c8.1,0,14.6-6.8,14.6-15.2s-6.5-15.2-14.6-15.2-14.6,6.8-14.6,15.2,6.5,15.2,14.6,15.2Z"/>
        <ellipse class="st2" cx="125.8" cy="386.2" rx="14.6" ry="15.2"/>
      </g>
    </g>
    <circle id="joint-elbow" class="st0" cx="126.2" cy="387.4" r="8.5"/>
    <circle id="joint-shoulder" class="st0" cx="128.7" cy="82.9" r="8.5"/>
  </g>
</svg>