<?xml version="1.0" encoding="UTF-8"?>
<svg id="Layer_2" xmlns="http://www.w3.org/2000/svg" version="1.1" viewBox="0 0 291.3 208.6">
  <!-- Generator: Adobe Illustrator 30.4.0, SVG Export Plug-In . SVG Version: 2.1.4 Build 226)  -->
  <defs>
    <style>
      .st0 {
        fill: #5eff00;
      }

      .st1 {
        fill: #2d3332;
      }

      .st2 {
        fill: #d2911d;
      }
    </style>
  </defs>
  <g id="Layer_1-2">
    <g>
      <polygon class="st1" points="47.2 121.3 154.1 121.3 149 206.8 69.1 208.5 47.2 121.3"/>
      <g>
        <path class="st2" d="M113.4,50.3c1.7-1.4,5.5-2.1,8.4-2.8l53.8,82.7c-2.4,2.7-5.1,3.2-8.1,5.3,2.5,2.1,4.2,6,7.9,7.3l10.7-1.8,29.8,21,70.1,30.1c5.4,2.3,5.7,11.7,5,16.4h-151c0,0-13.8-14.8-13.8-14.8-1.4-1.5-1.1-3.2-.5-4.5l25-31.6c1.5-2,4-4.2,3.2-6.7-.5-1.7-3.4-5.4-5.1-3.9l-5.1,4.3c-14-14.9-27.4-29.8-43.4-42.4-5.8-4.6-12.1-5.3-12.6-17.6,3.4-4,10.5-8.7,9.3-14.2l-5.3-24.5c-6.4,4.8-9.9,9.1-16.6,11.1-8,2.3-17.4,0-23.6-5.9-8-7.5-11-18.1-8-28.7,2.6-9,10.5-17.4,21-19.3,9.7-1.8,19,2.9,24.8,9.5,6.3,7.2,7.5,16.3,5.6,25.7-.2.9,10.6,12.3,18.5,5.3h0ZM86.4,37c0-9.6-7.8-17.3-17.3-17.3s-17.3,7.8-17.3,17.3,7.8,17.3,17.3,17.3,17.3-7.8,17.3-17.3Z"/>
        <path class="st2" d="M29.2,58.2l12.4,29.1,19,8,19.3,1.8c2.4.2,5,4.7,5.2,7.2l-14.4,24.1c-3.2,5.4-5.1,10.6-4.2,16.6l4,63.6h-37.5c0-.1-22.5-75.2-22.5-75.2.9-4.2-3-5.5-4.1-8.1L0,109.5l20.9-56,8.3,4.7h0Z"/>
        <path class="st1" d="M113.4,50.3c-7.9,7-18.7-4.3-18.5-5.3,1.9-9.5.7-18.5-5.6-25.7-5.8-6.6-15.2-11.3-24.8-9.5-10.4,1.9-18.4,10.3-21,19.3-3.1,10.6,0,21.2,8,28.7,6.2,5.8,15.6,8.2,23.6,5.9,6.8-1.9,10.2-6.3,16.6-11.1l5.3,24.5c1.2,5.6-5.8,10.2-9.3,14.2.5,12.3,6.8,13,12.6,17.6,16.1,12.7,29.5,27.5,43.4,42.4l5.1-4.3c1.8-1.5,4.6,2.2,5.1,3.9.8,2.5-1.7,4.7-3.2,6.7l-25,31.6-22.8-22.7c-10.4-10.3-22.9-17.4-36.3-21.7-.8-6,1-11.1,4.2-16.6l14.4-24.1c-.3-2.5-2.9-7-5.2-7.2l-19.3-1.8-19-8-12.4-29.1c5.1-10.2,9.3-21.1,1.2-25.3-.5-7.9,4.9-19.3,12.5-23.2l10.2-5.3c9.6-5,23.1-6.4,32.2-.3,3.8,2.5,6.7,2,10.4,3.5,12.2,5.1,17.6,19.9,16.1,32.4-.5,4.3-.5,7,1.7,10.3h0Z"/>
        <ellipse class="st1" cx="69.1" cy="37" rx="17.3" ry="17.3"/>
      </g>
    </g>
    <circle id="joint-foot" class="st0" cx="68.3" cy="37.7" r="8.5"/>
  </g>
</svg>