<?xml version="1.0" encoding="UTF-8"?>
<svg id="Layer_2" xmlns="http://www.w3.org/2000/svg" version="1.1" viewBox="0 0 108 226.9">
  <!-- Generator: Adobe Illustrator 30.4.0, SVG Export Plug-In . SVG Version: 2.1.4 Build 226)  -->
  <defs>
    <style>
      .st0 {
        fill: #5eff00;
      }

      .st1 {
        fill: #d7961d;
      }

      .st2 {
        fill: #2a3132;
      }
    </style>
  </defs>
  <g id="Layer_1-2">
    <g>
      <path class="st1" d="M73,55.4l-5.3,8,5.3,28.4,3.6,16.8,1.5,15.8-1.3,6.9c-5.2-2.7-4.3-6.1-12-4.2-3,.8-3.6,4.1-5.2,6.4-2.3,3.4-6.3.7-8.2-1.8-2.1-2.8-8.5-2.2-10.5.1-1.8,2.1-2.3,3.2-4.8,3-2.3-.2-2.6-1.6-3.8-3.9-1.6-3.1-7-4.1-9.8-2.3-1.5,1-2.3,2.6-3.3,2.7-6.3,1.1-3.2-6.4-9.9-8.4-2.5-.7-5.3.3-7,2.8-.9-.2-2.5-1-2.4-2.5L3.6,58.5c.3-4.9,5.3-3,5.9-6.8,3.5,2.7,7.6,5.3,9.9,9.8,8.5,3.6,17.5,4,26,.4l2.2-3.8c7.3-3.9,13-10,15.4-17.9,4,5,8.2,9.3,10,15.2h0Z"/>
      <path class="st2" d="M63,40.2c-2.4,7.9-8.1,14-15.4,17.9l-2.2,3.8c-8.5,3.6-17.5,3.2-26-.4-2.3-4.5-6.4-7.1-9.9-9.8C.2,39.9-.8,23.4,9,11.5,18.2.3,34.6-3.5,47.9,3.7c13.3,7.2,19.7,21.8,15.1,36.5ZM53.8,32c.5-11.4-8.4-21-19.7-21.4-11.4-.5-21,8.4-21.4,19.8s8.4,21,19.7,21.4c11.4.5,21-8.4,21.4-19.7Z"/>
      <path class="st2" d="M76.9,131.4l-.5,11.1c-3,1.7-3.6,5.6-8.9,6.2-1.8.2-4.6-1.2-6-2.8-1-1.2-1.1-5.1-4.4-4.9-1.8.6-.8,4.9-.8,6.6-4.1,2.1-5.7,6.7-12.2,4.2-1.9-.8-4.1-2.7-4.6-5.3-.3-1.3-.4-2.9-1.5-4.5-.5-.8-2.7-.1-3,.7l-.9,2.1c-1.9,1.6-4.3,4.1-6.6,4.1-3.3,0-5.5-1.5-8.2-3,0-.4.3-1.1,0-1.6,1.2.1,1.1-1,.1-1.1-.7-1.7-1.1-3.5-.9-6.2-1.9-.4-2.5.9-3.5,1.5-1.8,1.1-3.5,3.3-6,3.8-3.3.6-5.7-2.2-7.5-4.1.2-3.8-1.4-8.8.8-12.2,1.7-2.5,4.5-3.5,7-2.8,6.8,2,3.7,9.4,9.9,8.4,1-.2,1.8-1.8,3.3-2.7,2.8-1.8,8.2-.8,9.8,2.3,1.2,2.3,1.5,3.7,3.8,3.9,2.4.2,3-.9,4.8-3,2-2.4,8.4-2.9,10.5-.1,1.9,2.5,5.9,5.2,8.2,1.8,1.6-2.3,2.2-5.6,5.2-6.4,7.7-1.9,6.8,1.5,12,4.2h0Z"/>
      <path class="st1" d="M77.4,171.6c-3.2-1.6-7.6-2.8-10.9-.2-2.4,1.8-2.1,7,0,8.9,2.2,2,4.9,1.7,7.3.6,1.8-.8,3.4-2.9,4.2-5,.3-.2,1.8,0,1.8.8l.4,16.9c0,2.1-1.3,3.2-2.1,4.1-6.1-1.5-11.5,0-11.2,3.5-2.1-2.1-2.5-4.8-2.6-8.2,0-4.4-1.7-9.4-.7-13.6,1-3.7-.8-5.5-1.1-8.7l-2.2-21c-.2-1.6.2-3.1,1.1-4,1.4,1.6,4.3,3,6,2.8,5.3-.6,5.9-4.6,8.9-6.2.8.6,1.5,1.6,1.6,3.1l1.1,23c0,1.7-1.1,2.5-1.8,3.1h0Z"/>
      <path class="st1" d="M56.4,147.6l.4,21.9-.7,7.3c-3-1.2-6.3-2.9-9.7-1.3-3,1.4-3.5,5.1-2.3,8.4,1.1,2.3,3.5,4.2,7.6,3.1,1.8-.2,5.2-2.8,5-5.5.7,0,1.7.1,2.1.6.5.6.4,1.6.5,2.6l1.5,11.3c.3,2.7,0,4.9-1.1,6.9-6.5-1.1-9-1.7-11.3,2.4-2.1-.9-3-2.6-3.4-5.2l-2.6-16.9c-.5-2.9,1.4-5.8-1.2-8.5l-1-13.9c-.4-5.1-1.1-9.9-.5-14.5.5,2.6,2.7,4.5,4.6,5.3,6.5,2.6,8.1-2.1,12.2-4.2h0Z"/>
      <path class="st2" d="M98.1,97.2c-.3,2.2-1.1,5.8.3,7.8-2,.9-3.2,2.6-4.5,4.3-3.2,4.5-7,.4-10.3,2.4-1.9-.9-2.5-2.4-2.9-5.6-1.3,1.5-2.4,2.3-4.1,2.6l-3.6-16.8-5.3-28.4,5.3-8h.9c4.6-1.1-.5,4.9.2,7.7l3.9,15.5,8.6,20.9,9.7-7.3,1.8,5h0Z"/>
      <path class="st1" d="M98.1,97.2l-1.8-5-9.7,7.3-8.6-20.9-3.9-15.5c-.7-2.8,4.3-8.8-.2-7.7.9-1,2.2-1.1,3.4-1,1.6.2,1.9,1.9,2.8,2.9,8.2,8.5,13.5,18,17.6,29,1.5,3.9,2.6,7.2.3,11h0Z"/>
      <path class="st1" d="M34,171c-3.5-2.9-7.7-3.2-11.8-1.6-.8,0-2.5-.9-2.5-2.4l-.2-21.3c2.8,1.5,4.9,3,8.2,3,2.3,0,4.7-2.4,6.6-4.1,1,.2,1.6,1,1.6,2.2v19.6c0,1.8-.7,3.4-1.9,4.5h0Z"/>
      <path class="st1" d="M102.1,127.6c-1.9-.5-3.9-.1-6.1.7l-4.9,1.9c-2.5-.1-3-2.1-3.7-4.4-1.5-4.9-4.1-9.2-3.7-14,3.3-1.9,7,2.1,10.3-2.4,1.3-1.8,2.5-3.4,4.5-4.3.8,1,1.8,1.2,2.2,3.6l3,16.4c.3,1.5-1,2.2-1.6,2.6h0Z"/>
      <path class="st1" d="M15.1,138.4c.4.9,1,2.2.9,3.6l-2.4,22c-2.3-4.1-7.4-5.1-11.6-3.3-.7-.2-1.9-1.2-1.9-2.4v-17.1c0-1.5.7-2.4,1.6-3.1,1.8,1.9,4.2,4.8,7.5,4.1,2.5-.5,4.2-2.6,6-3.8h0Z"/>
      <path class="st1" d="M91.1,135.7c2.2,1.2,4.8,2,7.2.9,2-1,3.7-3.1,4.7-5.3,2.4.5,2.4,2.7,2.6,5.2.4,4.9,3.4,10.1,2,15-.8,2.9-5.3,3-7.5,2.2-5-1.7-9-10.8-9-18h0Z"/>
      <path class="st1" d="M38.6,191.9c-4.8,1.6-9.2-.9-11.9,1.6-1.2-.8-2.1-1.9-2.6-3.8l-2.7-9.9c-.5-1.7.4-2.6.4-3.5l4.5,2.5c3.6,2.1,7.6-.4,8.7-4.1,3.6.1,4.7,14.6,3.6,17.2Z"/>
      <path class="st1" d="M66.9,204.1c2.2,1.3,4.4,2.1,6.9,1.8,2.3-.3,4.2-1.8,5-4.4,3.2.3,2.7,13.8.8,18.6-1.3,3.3-4.8,3.7-7.5,2.7-2.8-1-4-3.6-4.4-6.9-.5-4.1-2.5-8.1-.8-11.7h0Z"/>
      <path class="st1" d="M48.5,209.3c2.4.7,4.7,2.2,7.3,1.3,2-.7,4.3-2.9,4.3-5.5,1.5-.2,2.7.6,2.9,2.5l1.4,12.4c.4,3.3-1.6,5.9-4.2,6.6-7.3,1.9-10.3-7.8-11.7-17.3h0Z"/>
      <path class="st1" d="M1.8,165.9c1.4.8,2.9,2,4.7,2.6,3.5,1.2,6.2-.9,6.9-3.9,1.4.2,2.2,1,2.6,2.6l2.6,10.1c.7,2.6-.5,5.6-2.4,6.6-7.9,4.4-11.7-7.7-14.5-18.1h0Z"/>
      <path class="st1" d="M27.4,196.2l4.8,1.7c1.8.7,4,0,5-1.4.6-.8.9-2.2.8-3.5,5.5,3.4,7.6,11.9,2.5,17.1-2.7,2.8-10.2-2.5-13.2-13.8h0Z"/>
      <path class="st2" d="M56.1,176.9l.5,4.8c.3,2.7-3.1,5.3-5,5.5-4.2,1.1-6.6-.8-7.6-3.1-1.2-3.3-.7-7.1,2.3-8.4,3.5-1.6,6.7.1,9.7,1.3h0Z"/>
      <path class="st2" d="M77.4,171.6c-.2,1.3.3,3,.6,4.3-.8,2.1-2.4,4.2-4.2,5-2.4,1-5,1.3-7.3-.6-2.2-1.9-2.5-7.1,0-8.9,3.4-2.6,7.8-1.4,10.9.2h0Z"/>
      <path class="st2" d="M34,171c.8.7.9,2.6,1,3.7-1,3.6-5.1,6.2-8.7,4.1l-4.5-2.5.3-6.9c4.1-1.6,8.3-1.3,11.8,1.6h0Z"/>
      <path class="st2" d="M102.1,127.6l1,3.8c-1,2.2-2.6,4.3-4.7,5.3-2.4,1.2-5,.3-7.2-.9v-5.6s4.9-1.9,4.9-1.9c2.2-.8,4.1-1.1,6.1-.7Z"/>
      <path class="st2" d="M78.2,197.7c.3.9.8,2.8.6,3.8-.8,2.6-2.6,4.1-5,4.4-2.6.3-4.8-.4-6.9-1.8.3-.8.1-2.1,0-2.9-.3-3.5,5.1-5,11.2-3.5h0Z"/>
      <path class="st2" d="M13.6,164v.6c-.8,3-3.6,5.1-7.1,3.9-1.8-.6-3.3-1.8-4.7-2.6-.5-1.8-.4-3.5.1-5.3,4.2-1.7,9.3-.7,11.6,3.3h0Z"/>
      <path class="st2" d="M59.7,203c-.3.5.1,1.6.4,2,0,2.6-2.3,4.9-4.3,5.5-2.6.9-4.9-.6-7.3-1.3-.2-1.2-.8-2.5-.1-3.8,2.2-4.1,4.8-3.5,11.3-2.4Z"/>
      <path class="st2" d="M38.6,191.9l-.5,1.1c0,1.3-.2,2.8-.8,3.5-1.1,1.4-3.2,2.1-5,1.4l-4.8-1.7c-.2-.8-.8-1.9-.7-2.7,2.7-2.5,7,0,11.9-1.6h0Z"/>
      <path class="st1" d="M19.4,144.1v-1.1c1.1,0,1.2,1.2,0,1.1Z"/>
      <path class="st1" d="M53.8,32c-.5,11.4-10.1,20.2-21.4,19.7-11.4-.5-20.2-10.1-19.7-21.4s10.1-20.2,21.4-19.8c11.4.5,20.2,10.1,19.7,21.4ZM46.3,31.8c.3-7.2-5.3-13.3-12.5-13.6-7.2-.3-13.3,5.3-13.6,12.5-.3,7.2,5.3,13.3,12.5,13.6s13.3-5.3,13.6-12.5Z"/>
      <ellipse class="st2" cx="33.2" cy="31.2" rx="13.1" ry="13" transform="translate(.7 63.2) rotate(-87.7)"/>
    </g>
    <circle id="joint-wrist" class="st0" cx="33.2" cy="31" r="8.5"/>
  </g>
</svg>