<?xml version="1.0" encoding="UTF-8"?>
<svg id="Layer_2" xmlns="http://www.w3.org/2000/svg" version="1.1" viewBox="0 0 280.3 281.7">
  <!-- Generator: Adobe Illustrator 30.4.0, SVG Export Plug-In . SVG Version: 2.1.4 Build 226)  -->
  <defs>
    <style>
      .st0 {
        fill: #5eff00;
      }

      .st1 {
        fill: #d9991e;
      }

      .st2 {
        fill: red;
      }

      .st3 {
        fill: aqua;
      }

      .st4 {
        fill: #2c2e2d;
      }
    </style>
  </defs>
  <g id="Layer_1-2">
    <g>
      <g>
        <g>
          <path class="st1" d="M228.6,275.8l7.7-30.5,12.9-50c2.2-3.5,5.1-3.1,6-6.8,2.5-10.2,2.3-26.7-1.1-36.8-1.6-4.7-10.1-12.1-15.3-13.9-2.4-.9-5.9.6-7.9,1.8-3.6,2.1-5.5,5.6-6.8,9.4-1.4,4.8-1.3,9.7-.3,14.7l8.8,10,13.5,15.5c1.5,1.7.8,4.6.2,6.8l-20.2,79.4c-.2.1-.7.8-1.2.5l-40.5-25.2-2.1-1.1-15.6-10.9c-5.6-27-19.5-49.6-36.7-71.2,17.2,3.4,34-1.9,45.4-14.3,18.6-20.3,16.9-51.5-3.9-69.5-17-14.6-42.2-15.3-59.8-1.7-24.2,18.7-25.3,54-2.8,74.4l12.2,25.4c-13.6-4.9-26.9-8.8-40.6-12.9-1.5-.4-3.6-1.6-4.5-2.9-14.2-21.5-19-46.8-16.2-72.4l-17.5-4.1c-13.8-3.1-27.7-5.5-42.4-7.6l4.2-28.7,59.6-19-5.5-10.1C89.9,4.9,123.8-3.1,160.7,1.1c19.4,2.2,38.3,7.5,55.4,16.7,23.4,12.5,42.1,31.6,53.2,55.7,6.8,14.7,10.2,30.5,11,46.6v21.6c-.8,13.4-1.3,26.7-4,40l-13.3,56.7-7.9,37.5c-1.7,4.6-6.3,6.7-11.1,5.5l-15.2-4c-.5-.1-.5-1.4-.2-1.6h0Z"/>
          <path class="st4" d="M67.2,191.1c.9,1.1.7,1.8.6,2.9,13.3,6.9,25.9,15.4,38.6,23.4,9.5,6,19.4,10.4,29.3,15.6,2.3,1.2,4.6,2.5,6.8,3.9,2.9-1.6,6.3-2.1,9.5-1.3,3.2-.8,6.7-.4,9.4,1.4,6.2,4.2,12.1,8.7,17.9,13.4.7.4,1.4.9,2.1,1.4l.9-2-15.6-10.9c-5.6-27-19.5-49.6-36.7-71.2,17.2,3.4,34-1.9,45.4-14.3,18.6-20.3,16.9-51.5-3.9-69.5-17-14.6-42.2-15.3-59.8-1.7-24.2,18.7-25.3,54-2.8,74.4l12.2,25.4c-13.6-4.9-26.9-8.8-40.6-12.9-1.5-.4-3.6-1.6-4.5-2.9-14.2-21.5-19-46.8-16.2-72.4l-17.5-4.1c-4.8,21.5-4.5,41.1,2.6,62.2,4.9,14.6,12.5,27.8,22.4,39.4h0ZM94.4,120.4c0-25.4,20.6-46.1,46.1-46.1s46.1,20.6,46.1,46.1-20.6,46.1-46.1,46.1-46.1-20.6-46.1-46.1Z"/>
          <path class="st4" d="M228.5,276.2l-2.3-.6,20.2-79.4c.6-2.2,1.3-5.1-.2-6.8l-13.5-15.5-8.8-10c-1-4.9-1.2-9.8.3-14.7,1.3-3.8,3.2-7.2,6.8-9.4,2-1.2,5.5-2.6,7.9-1.8,5.1,1.9,13.7,9.2,15.3,13.9,3.4,10.2,3.6,26.6,1.1,36.8-.9,3.7-3.8,3.3-6,6.8l-12.9,50-7.7,30.5h0Z"/>
          <g>
            <path class="st1" d="M186.5,120.4c0,25.4-20.6,46.1-46.1,46.1s-46.1-20.6-46.1-46.1,20.6-46.1,46.1-46.1,46.1,20.6,46.1,46.1ZM166.5,120.4c0-14.4-11.7-26-26-26s-26,11.7-26,26,11.7,26,26,26,26-11.7,26-26h0Z"/>
            <circle class="st4" cx="140.4" cy="120.4" r="26"/>
          </g>
        </g>
        <circle id="joint-neck" class="st0" cx="114.4" cy="207.1" r="8.5"/>
        <path class="st2" d="M140.4,154.8c-19,0-34.4-15.4-34.4-34.4s15.4-34.4,34.4-34.4,34.4,15.4,34.4,34.4-15.4,34.4-34.4,34.4ZM140.4,93c-15.1,0-27.4,12.3-27.4,27.4s12.3,27.4,27.4,27.4,27.4-12.3,27.4-27.4-12.3-27.4-27.4-27.4Z"/>
      </g>
      <circle id="anchor-ribbon" class="st3" cx="48" cy="101.9" r="5.7"/>
    </g>
  </g>
</svg>