<?xml version="1.0" encoding="UTF-8"?>
<svg id="Layer_2" xmlns="http://www.w3.org/2000/svg" version="1.1" viewBox="0 0 147.9 628">
  <!-- Generator: Adobe Illustrator 30.4.0, SVG Export Plug-In . SVG Version: 2.1.4 Build 226)  -->
  <defs>
    <style>
      .st0 {
        fill: #5eff00;
      }

      .st1 {
        fill: #2d3332;
      }

      .st2 {
        fill: #d2911d;
      }
    </style>
  </defs>
  <g id="Layer_1-2">
    <g>
      <path class="st2" d="M69.9,52.1l15.5,18.9c10.3,4.7,21.2,6.5,33.2,4.9l10.9,37.3c1.1,3.8,7,6.1,9.5,7.8,3,2.1,6.2,3,9,6l-26.6,189.6-12.2,131-.5,69.7c1.3,23.1,5.5,44.9,13.3,66.6-6.3,5.8-11.6,10.5-17.7,14.3.2-2.2.5-4.1-.8-6.5-2.9,1.5-4.8,2.9-7.9,3.4-3.2-12.8-6.5-24.8-12.7-36-11.8-8.9-30.6-9-38.8-.6-5.9,5.9-9.7,21.4-13.8,25.5-1.7,1.7-2.1,4.3-3.1,7.1-4.2-3-7.2-4.7-9.8-8.8l18.4-40.3c12.6-24.8,21.2-50.9,27.6-79l-7-112.8-7-67.1L.8,209.7c-.2-1.7-1.3-3.1-.6-5.6l20.6-75.6L63.4,46.2l6.5,6Z"/>
      <path class="st1" d="M35.8,542.2c5.3-55.2-4.6-113-12.4-168.6L.8,209.7l48.7,73.7,7,67.1,7,112.8c-6.4,28-15.1,54.2-27.6,79h0Z"/>
      <path class="st1" d="M143.6,28.3c4,13.6-3.1,27.9-14.4,37.4l11.7,43.3c1.1,4-1.8,8.4-2,12.1-2.5-1.8-8.4-4-9.5-7.8l-10.8-37.3c-12.1,1.6-22.9-.2-33.2-4.9l-15.5-19c.9-1.7,3.3-2.5,5.1-3.7-4.3-13.4-1.7-26.8,7.4-37.2,1.9-2.1,4.1-2.6,6-2.9.3,1.5,1.4,2.3,2.3,2.5,3.9.9,18-10.6,31.6-1.3-7.5.1-13.9-2.5-20.9-.2-13.3,4.4-21.5,19.2-18.2,33,3.5,14.3,18,22.5,31.3,19.9,14.5-2.9,24.6-16.3,21.7-31.6,2.5-1.9,4.9-1.9,7.6-2.4h0Z"/>
      <path class="st2" d="M142.6,23.7c-.2.6,0,1.2.3,1.7-.2,1,.5,2.2.7,2.9-2.7.5-5.1.5-7.6,2.4,3,15.3-7.1,28.7-21.7,31.6-13.3,2.7-27.8-5.6-31.3-19.9-3.4-13.8,4.8-28.6,18.2-33,6.9-2.3,13.4.3,20.9.2-13.6-9.4-27.7,2.2-31.6,1.3-.9-.2-1.9-1-2.3-2.5,10.7-11.3,29.9-10.9,43.8-.2,5.2,4.1,9.3,9.1,10.5,15.6h0ZM127.1,35.6c0-9.7-7.8-17.5-17.5-17.5s-17.5,7.8-17.5,17.5,7.8,17.5,17.5,17.5,17.5-7.8,17.5-17.5Z"/>
      <path class="st1" d="M104.3,598.3l-14.3,8.9c-5.6,15.8-22.3,24.1-38,19.6-14.8-4.2-24.7-19.3-21.9-35.3.5-2.8,1-5,.2-7.3,4.1-4.1,7.9-19.6,13.8-25.5,8.3-8.3,27.1-8.3,38.9.6,6.2,11.2,9.5,23.1,12.7,36,3.1-.5,4.9-1.9,7.9-3.4,1.3,2.4,1,4.3.8,6.5ZM87.7,599.3c1.1-7.2-1.1-15.5-5.4-20.9-5.2-6.5-14.6-11.8-22.6-11.3-11.6.7-22.1,9.8-25.3,21.5-4.4,16,5.6,31.2,20.5,34.4,15.4,3.3,30.2-6.8,32.8-23.6h0Z"/>
      <path class="st1" d="M142.9,25.4c-.4-.4-.4-1-.3-1.7,1,.2,1.2,1.2.3,1.7Z"/>
      <circle class="st1" cx="109.6" cy="35.6" r="17.5"/>
      <path class="st2" d="M87.7,599.3c-2.6,16.8-17.5,26.8-32.8,23.6-14.9-3.2-24.9-18.4-20.5-34.4,3.2-11.7,13.7-20.7,25.3-21.5,7.9-.5,17.4,4.9,22.6,11.3,4.4,5.5,6.6,13.8,5.4,20.9h0ZM78.4,595.8c0-9.8-7.9-17.8-17.8-17.8s-17.8,8-17.8,17.8,8,17.8,17.8,17.8,17.8-8,17.8-17.8Z"/>
      <ellipse class="st1" cx="60.7" cy="595.8" rx="17.8" ry="17.8"/>
    </g>
    <circle id="joint-knee" class="st0" cx="109.6" cy="35.6" r="8.5"/>
    <circle id="joint-ankle" class="st0" cx="60.9" cy="595.8" r="8.5" transform="translate(-10.3 1.1) rotate(-1)"/>
  </g>
</svg>