<?xml version="1.0" encoding="UTF-8"?>
<svg id="Layer_2" xmlns="http://www.w3.org/2000/svg" version="1.1" viewBox="0 0 202.4 678.7">
  <!-- Generator: Adobe Illustrator 30.4.0, SVG Export Plug-In . SVG Version: 2.1.4 Build 226)  -->
  <defs>
    <style>
      .st0 {
        fill: #5eff00;
      }

      .st1 {
        fill: #2d3332;
      }

      .st2 {
        fill: #d2911d;
      }
    </style>
  </defs>
  <g id="Layer_1-2">
    <g>
      <path class="st2" d="M197.1,231.8l1.4,6.7c.7,30.5.4,60.1-4.2,90.2l-7.7,50.6-25.9,121.8-8.5,1.2v7.9c2.6-.2,4-1.2,6.9-2.7l-6.3,104.3-40.9,67c-5.5-1.9-10.3-1.6-15.8-1.7l-.3-8.6.6-42.9c-2.4-3.7-5.6-6.9-3.6-12.6,1.5-4.3,3.9-6.2,8.6-8.8,18.3-10.2,21.6-34.2,9.7-50.8l24.7-35.5c1.9-2.7.9-8.6.2-11.9-.7-2.9-6.7-2.3-7.5.9l-21.7,31.8c-11.2-8-24.4-8.5-37.1-4.2-12.9-39.3-25-77.5-39.9-115.4-.5-.5-1-.6-1.5-.6C17.4,336.7,7.7,254.8.2,172.1c-.5-5.1,0-8.6.2-12.6,3-2.8,4.7-6.8,6.8-10.7,8.8-16,17.5-30.8,28.8-45.3,10.9-14,27.4-24.1,46.2-22.9,14.7.9,30.3,9,39.3,20.8,29.4,38.4,50.4,113.5,57.6,161.9l-1.8,27.9c8.6-19.4,15.5-38.9,19.8-59.3h0Z"/>
      <path class="st1" d="M192.6,157.7l4.5,74.1c-4.4,20.4-11.3,39.9-19.8,59.3l1.8-27.9c-7.1-48.4-28.2-123.5-57.6-161.9-9-11.7-24.6-19.8-39.3-20.8-18.8-1.2-35.3,8.9-46.2,22.9-11.3,14.5-20,29.3-28.8,45.3-2.2,3.9-3.8,7.9-6.8,10.7,1-32.4,4.4-59.3,21.4-87.3l2.7-2.4c6.5-8.6,12.9-17.5,22.2-23.5,22.2-14.3,49.8-14.3,73.2-2.4,11.6,5.9,20.5,14.3,29.1,24.1,1.9-.5,3.6-1.3,5.5-1.3,6.4,7.9,10,16.7,14.3,25.6,1.2.5,4,1,4,1.8l.3,4.9c7.4,27.4,6.6,55.1,2.9,83.4,8.6-7.5,11.8-16.6,16.6-24.8h0Z"/>
      <path class="st1" d="M95.8,668.5l-32.8-.2-33.5-82.2c2.5-28.8,8.5-61.2,5.9-89.8l-7.1-77.6c.5,0,1,.1,1.5.6,14.9,37.8,27,76.1,39.9,115.4,12.7-4.3,25.9-3.8,37.1,4.2l21.7-31.8c.7-3.1,6.8-3.8,7.5-.9.7,3.2,1.7,9.2-.2,11.8l-24.7,35.5c11.8,16.6,8.6,40.6-9.7,50.8-4.7,2.6-7.1,4.5-8.6,8.8-2,5.7,1.2,8.9,3.6,12.6l-.6,42.9h0ZM112.1,575.6c0-15.3-12.4-27.8-27.8-27.8s-27.8,12.4-27.8,27.8,12.4,27.8,27.8,27.8,27.8-12.4,27.8-27.8Z"/>
      <path class="st2" d="M192.6,157.7c-4.7,8.2-7.9,17.3-16.6,24.8,3.7-28.3,4.4-55.9-2.9-83.4l-.3-4.9c0-.9-2.8-1.3-4-1.8-4.3-8.8-8-17.6-14.3-25.6-1.9,0-3.6.8-5.5,1.3-8.6-9.8-17.5-18.2-29.1-24.1-23.4-11.9-51-12-73.2,2.4-9.3,6-15.6,14.8-22.2,23.5l-2.7,2.4c-.4-7.4,4.4-11.2-.5-17.5,8.4-15,17.1-29.3,28.2-42.4,2.3-2.7,6.7-4.6,10.1-5.9,27.6-11,59.8-7.7,83.5,10.4,8.5,6.5,13.2,15.5,20.7,23.2l5.5-2.8c3.4,4.4,9.2,7.2,11.4,12.2l4.8,25c3.7,8.8,10.5,15.5,16.8,22.7.1,21-2.9,41.5-9.8,60.6h0Z"/>
      <path class="st2" d="M112.1,575.6c0,15.3-12.4,27.8-27.8,27.8s-27.8-12.4-27.8-27.8,12.4-27.8,27.8-27.8,27.8,12.4,27.8,27.8ZM102.4,575.9c0-10-8.1-18-18-18s-18,8.1-18,18,8.1,18,18,18,18-8.1,18-18Z"/>
      <ellipse class="st1" cx="84.4" cy="575.9" rx="18" ry="18"/>
    </g>
    <circle id="joint-groin" class="st0" cx="95.4" cy="90.6" r="8.5"/>
    <circle id="joint-knee" class="st0" cx="84.4" cy="576" r="8.5"/>
  </g>
</svg>