<?xml version="1.0" encoding="UTF-8"?>
<svg id="Layer_2" xmlns="http://www.w3.org/2000/svg" version="1.1" viewBox="0 0 336.9 562.5">
  <!-- Generator: Adobe Illustrator 30.4.0, SVG Export Plug-In . SVG Version: 2.1.4 Build 226)  -->
  <defs>
    <style>
      .st0 {
        fill: #5eff00;
      }

      .st1 {
        fill: #343838;
      }

      .st2 {
        fill: red;
      }

      .st3 {
        fill: #d5951e;
      }
    </style>
  </defs>
  <g id="Layer_1-2">
    <g>
      <g>
        <path class="st3" d="M211.5,165.6l38.2,14,12.5,23.5,7.8,5.8,24.9,35.6c-1.8,3.6,1.8,3.8,2.9,5.4l39.2,55.9-10.9,44.8-15.3,18.5c-.9,1-1.8,1.8-2.8,1.7l-8.6-18.5-40.3,24.6c-.9-.3-2.3-.8-3.2-.7l-23.9,35.8-17.7,3.4c-4.9,1-7.8,6.5-12,8.8l-23.9,12.9c-19,9-39.4,13.1-60.1,13.4-2.1,0-4.3,0-6.5-.9l-12.9-21.7c-.7-1.2.5-2.4.9-3,2.9-.7,5.5.5,8.3,1.4,4.3,1.3,8.6.2,13-.1,22.8-1.7,44.5-8.3,64.6-19.1l17.8-10.8c3.8-2.3,7.5-4.2,11.5-5.8,2.2-.9,3.4-4,4.7-5.9-2.7-3-5.2-5.1-8.5-7.1-16.8,12.5-34,22.9-53,31.2-19.2,8.4-38.9,12.5-59.4,12.2-1.4,0-2.9-.3-4.7-.9l-12.1-18.5c-.8-1.2.3-2.7.6-3.5l12,2.3c38.3.5,70.1-15.5,97.9-40.9l12.6-12.2-15-8.2c-15.6,17.2-32.9,32.5-53.4,43.6-10.5,5.7-21.9,8.4-33.4,10.7-6.7,1.4-13.2.8-19.9.7-.9,0-1.4.3-1.5.9-1.5-1-3.2-1.5-5.3-2l-15.1-25.3c-1.4-2.3-2.7-5-1.7-7.2.3.3.5.8,1,1l4.1-3.9c13.8,3.8,27.7,5.9,41.9,4,8.9-1.2,17.7-3.3,25.5-7.2,7.9-3.9,15.3-8.3,21.4-14.5l14.5-14.7,5.7-10.6c2.3-4.2,4.2-8.2,5.7-12.9l-15-11.3c4.3-16.1,2.9-32-2-47.8l-20.7-16c2.5,28.2-10.2,54.6-33.7,69.3-23.4,14.7-52.4,14.4-75.6-.4-1.1,4.4-3.3,7.5-5.4,10.8-2.6-1.5-7-2.8-8.3-6l-4.9-12.3c-2.7-6.9-3.9-13.8-6.5-20.5-5-12.8-8.7-25.6-6.9-39.5,2.7-20.4,12.6-38.6,29.1-50.7l6.8-12.7c0-1.5-.3-3.3.4-5l17.3-41.7c1.5-.9,3-1.4,4.5-1.5,8.5-.6,17.1-3,26.1-1.8,15.9,2,34.5,9.8,48.7,17.1l17.4,20.9,69.5,24.2-8.7-11h0ZM139.6,199.5c5.1-6.4,8.8-13.6,10.2-22.1-12.8-6.9-25.6-12.6-39.1-17.7l-16.9-6.3c-4.3-.9-8.6-.5-12.7-2.5-7.5,6.8-18.4,8.6-26,14.9,34-7.3,65,8.4,80.3,39l4.2-5.3h0ZM118.4,234.9c0-26.3-21.3-47.6-47.6-47.6s-47.5,21.3-47.5,47.6,21.3,47.6,47.5,47.6,47.6-21.3,47.6-47.6ZM232.6,206.3c-.6-4.4-2.5-8.7-6.8-8.9-1.3,1.4.6,3.7,1.3,4.9,1.4,2.4,2.5,4.2,5.5,4.1Z"/>
        <path class="st1" d="M184.9,64.7l19.2,7.8-3.7,28c-.4,2.9-.7,4.2-.9,7.4l-1.8,24.7c-.2,2.2-1.3,3.5-.5,6.1l.3,10.1,11.1,13.8,3,2.9,8.7,11-69.5-24.2-17.4-20.9c-14.2-7.3-32.8-15.1-48.7-17.1-9-1.1-17.6,1.2-26.1,1.8l16-34.2c1-2.2,1.7-3.5,2.7-5.8l8.8-20.2c1.3-3,2.5-5.2,3.8-8.3l6.7-16.2c.3-.8,1.3-1.3,1.8-1.5,1.4-.2,2.6.2,4.3.9l82.4,33.8h0Z"/>
        <path class="st1" d="M59.5,360.3c.5-1,.6-3.5,0-4.4l-13.6-20.2c-6.7-9.9-13.2-19.5-18.8-29.6,2.2-3.3,4.3-6.4,5.4-10.8,23.2,14.9,52.2,15.1,75.6.4,23.5-14.7,36.2-41.1,33.7-69.3l20.7,16c4.9,15.8,6.2,31.8,2,47.8l15,11.3c-1.4,4.7-3.4,8.6-5.7,12.9l-5.7,10.6-14.5,14.7c-6.1,6.2-13.5,10.6-21.4,14.5-7.9,3.9-16.7,6-25.6,7.2-14.2,1.9-28.2-.2-41.9-4l-4.1,3.9c-.4-.2-.7-.7-1-1h0Z"/>
        <path class="st3" d="M184.9,64.7L102.6,30.9c-1.7-.7-2.9-1.1-4.3-.9,0-1.5.3-3.2.9-4.9L107.7,0l70.4,28.8,6.7,35.9Z"/>
        <path class="st1" d="M82.4,397.8c.3-1-.4-2.3-.9-3.1.1-.6.6-1,1.5-.9,6.7.1,13.3.7,20-.7,11.5-2.4,22.9-5.1,33.4-10.7,20.5-11.1,37.9-26.3,53.4-43.6l15,8.2-12.6,12.2c-27.7,25.4-59.5,41.4-97.9,40.9l-12-2.3h0ZM145.4,386.8c12.9-5.6,23.9-13,34.7-21.1,6.9-5.2,13.1-10.1,18.6-16.9l-9.1-5.5-10.9,11.3c-10.4,10.8-22.5,19.3-34.9,27.9-.9.6.4,4.7,1.7,4.3h0Z"/>
        <path class="st1" d="M99.6,424.9c.2-1.1-.6-2.6-1-4,20.5.3,40.3-3.8,59.4-12.2,18.9-8.3,36.2-18.7,53-31.2,3.3,2.1,5.8,4.2,8.5,7.1-1.3,1.9-2.5,5-4.7,5.9-4.1,1.6-7.7,3.5-11.5,5.8l-17.8,10.8c-20.1,10.8-41.7,17.4-64.6,19.1-4.4.3-8.7,1.4-13,.1-2.9-.9-5.4-2.1-8.3-1.4h0ZM172.4,410.3c8.8-3.8,16.9-8,25.1-13,5.8-3.6,12.4-6.1,17-11.6.6-.9-1.6-3-2.7-3.3-1.1-.3-2.6.7-3.8,1.5-16.4,11.4-33.2,21.3-51.7,28.9l.2,3c5.7-.6,10.6-3.3,15.8-5.5h0Z"/>
        <path class="st1" d="M139.6,199.5l-4.2,5.3c-15.4-30.5-46.3-46.2-80.3-39,7.6-6.4,18.6-8.1,26-14.9,4.1,2,8.4,1.7,12.7,2.5l16.9,6.3c13.5,5,26.3,10.7,39.1,17.7-1.3,8.4-5,15.7-10.2,22.1h0Z"/>
        <path class="st1" d="M118.4,234.9c0,26.3-21.3,47.6-47.6,47.6s-47.5-21.3-47.5-47.6,21.3-47.6,47.5-47.6,47.6,21.3,47.6,47.6ZM113.7,234.9c0-23.7-19.2-42.9-42.9-42.9s-42.9,19.2-42.9,42.9,19.2,42.9,42.9,42.9,42.9-19.2,42.9-42.9h0Z"/>
        <path class="st1" d="M232.6,206.3c-3.1.1-4.1-1.7-5.5-4.1-.7-1.2-2.6-3.5-1.3-4.9,4.3.3,6.2,4.5,6.8,8.9Z"/>
        <path class="st3" d="M145.4,386.8c-1.3.4-2.6-3.7-1.7-4.3,12.4-8.6,24.5-17.1,34.9-27.9l10.9-11.3,9.1,5.5c-5.5,6.8-11.8,11.7-18.6,16.9-10.8,8.1-21.8,15.6-34.7,21.1h0Z"/>
        <path class="st3" d="M172.4,410.3c-5.3,2.3-10.1,4.9-15.8,5.5l-.2-3c18.4-7.6,35.3-17.5,51.6-28.9,1.2-.9,2.6-1.8,3.8-1.5,1.1.2,3.3,2.4,2.7,3.3-4.6,5.5-11.2,8-17,11.6-8.2,5-16.3,9.3-25.1,13h0Z"/>
        <path class="st3" d="M113.7,234.9c0,23.7-19.2,42.9-42.9,42.9s-42.9-19.2-42.9-42.9,19.2-42.9,42.9-42.9,42.9,19.2,42.9,42.9h0ZM106,234.9c0-19.4-15.7-35.2-35.2-35.2s-35.2,15.7-35.2,35.2,15.7,35.2,35.2,35.2,35.2-15.7,35.2-35.2h0Z"/>
        <circle class="st1" cx="70.8" cy="234.9" r="35.2"/>
      </g>
      <circle id="joint-shoulder" class="st0" cx="70.6" cy="234.9" r="8.5"/>
      <circle id="joint-neck" class="st0" cx="140.2" cy="40.9" r="8.5"/>
      <path class="st2" d="M84.3,396.4s18.2,11.5,59.1-4,61.4-45.3,61.4-45.3l-15-8.2s-35.3,50.7-105.5,57.6Z"/>
      <path class="st2" d="M105.5,423.5s16.2,11.6,54.9-.6c38.7-12.2,59.2-38.6,59.2-38.6l-13.4-8.4s-35.3,45-100.6,47.6h0Z"/>
      <path class="st1" d="M299.3,352.3l-40.3,24.6c-.9-.3-2.3-.8-3.2-.7l-23.9,35.8-17.7,3.4c-4.9,1-7.8,6.5-12,8.8l-23.9,12.9c-19,9-39.4,13.1-60.1,13.4,3.4,11.4,6,22.8,7.9,34.8.7.8,2.8,1.9,2.3,3l-1.5,3.5v2.7c-1.4,3.9-2.1,8-2.1,12.1,0,30.9,37.8,56,84.4,56s71.7-17.5,81.4-41.3c.4.2.8.3,1.2.5l8.7-54.5-1.6-4.5,3.1-2.7,5.1-29.1.8-60-8.6-18.5h0Z"/>
      <circle id="joint-waist" class="st0" cx="207.3" cy="530.1" r="8.5"/>
    </g>
  </g>
</svg>