<?xml version="1.0" encoding="UTF-8"?>
<svg id="Layer_2" xmlns="http://www.w3.org/2000/svg" version="1.1" viewBox="0 0 226.2 246.7">
  <!-- Generator: Adobe Illustrator 30.4.0, SVG Export Plug-In . SVG Version: 2.1.4 Build 226)  -->
  <defs>
    <style>
      .st0 {
        fill: #5eff00;
      }

      .st1 {
        fill: #343838;
      }

      .st2 {
        fill: #d5951e;
      }
    </style>
  </defs>
  <g id="Layer_1-2">
    <g>
      <g>
        <path class="st2" d="M209.8,145.9c.9,1.6,3.1,5.1,2.5,7.3l-6.9,19.3-40.2,68.8c-6.6.8-12.4,1.4-19,.9-.8,0-1-2.3-.5-3l7.6-12.8c3.1-9.1,4.5-18.6,5.1-28.3.7-9.7-1.4-18.9-3.9-28.1,1.3-3.3.4-6.5-3-7.7-15.2-38-53.7-61-94.2-56.4l-8.8.7-12.7,14.1c37.8-19.1,81,.6,94.5,38.8,9.4,26.5-.9,55.9-22.1,72.7-8,6.4-17.6,10.9-28,13.1C40.4,253.9,3.3,224.3.2,184.8c-1.2-15.1,3.2-28.9,11-41.5l.7-27.6,27.1-51.5,7.1-1.9,23.2-1.7c32.3,1.8,63.7,14.9,86.2,38.5,8.2,8.6,13.1,19.5,19.2,29.5l5.2,13.4,18.6,9.7c1.7.7,3.2-2.4,4.3-3,2.1-1.1,5.3-1.3,7-2.9h0ZM114.1,180.2c0-26.5-21.5-48-48-48s-48,21.5-48,48,21.5,48,48,48,48-21.5,48-48Z"/>
        <path class="st1" d="M145.7,239.1l-37.4-7c21.2-16.8,31.4-46.2,22.1-72.7-13.6-38.2-56.7-57.8-94.5-38.8l12.7-14.1,8.8-.7c40.5-4.6,78.9,18.4,94.2,56.4,3.4,1.1,4.3,4.3,3,7.7,2.6,9.2,4.6,18.4,3.9,28.1-.7,9.6-2,19.2-5.1,28.3l-7.6,12.8h0Z"/>
        <circle class="st1" cx="66" cy="180.2" r="48"/>
      </g>
      <circle id="joint-groin" class="st0" cx="66" cy="180.2" r="8.5"/>
      <path class="st1" d="M55.3,38l-9.3,24.4,23.2-1.7c32.3,1.8,63.7,14.9,86.2,38.5,8.2,8.6,13.1,19.5,19.2,29.5l5.2,13.4,18.6,9.7c1.7.7,3.2-2.4,4.3-3,2.1-1.1,5.3-1.3,7-2.9l12.5-105-1.4-3.8c-.3-.8,1.2-1.8,2.5-2.4l2.7-17.1C197.3,6.3,165.2,0,131.4,0s-48.6,3.4-70.9,9.6l-3.5,21.8c1.5,2.5.7,5.1-1.7,6.6h0Z"/>
      <circle id="joint-waist" class="st0" cx="141.7" cy="26" r="8.5"/>
    </g>
  </g>
</svg>